<?xml version="1.0" encoding="UTF-8"?><svg id="Layer_1" xmlns="http://www.w3.org/2000/svg" viewBox="0 0 400 270"><defs><style>.cls-1{letter-spacing:-.04em;}.cls-2{letter-spacing:-.04em;}.cls-3{fill:#034b50;}.cls-3,.cls-4{font-family:Montserrat-Bold, Montserrat;font-size:28.07px;font-weight:700;}.cls-4,.cls-5{fill:#16a671;}.cls-5{stroke-width:0px;}.cls-6{letter-spacing:-.05em;}</style></defs><path class="cls-5" d="m131.87,155.5c-1.3,0-2.32-1.02-2.32-2.31,0-1.3,1.04-2.33,2.35-2.33,1.29,0,2.38,1.06,2.34,2.35-.04,1.29-.92,2.31-2.36,2.29Zm-4.45-2.31c-.02-1.29-1.02-2.32-2.31-2.32-1.33,0-2.38,1.03-2.38,2.34,0,1.25,1.06,2.29,2.34,2.29,1.25.11,2.37-1.09,2.35-2.31Zm-8.76-47.62c-3.66.77-5.82,5.24-4.83,9.99.99,4.75,4.77,7.98,8.43,7.21,3.66-.77,5.82-5.24,4.83-9.99-.99-4.75-4.77-7.98-8.43-7.21Zm-15.1,14.69c-1.65,2.45-.41,6.16,2.76,8.29,3.17,2.14,7.08,1.88,8.72-.56,1.65-2.45.41-6.16-2.76-8.29-3.17-2.14-7.08-1.88-8.72.56Zm26.3-7.48c-.99,4.75,1.17,9.22,4.83,9.99s7.44-2.46,8.43-7.21c.99-4.75-1.17-9.22-4.83-9.99-3.66-.77-7.44,2.46-8.43,7.21Zm14.8,6.92c-3.17,2.14-4.41,5.85-2.76,8.29s5.55,2.7,8.72.56c3.17-2.14,4.41-5.85,2.76-8.29-1.65-2.45-5.55-2.7-8.72-.56Zm-9.4,16.11h-13.95l.5,1.86h12.96l.5-1.86Zm9.65,4.86c-.16-3.27-1.74-6.66-4.06-9.51l-1.38.69-.74,2.78s-.02.07-.03.11l-2.61,9.8c-.18.67-.78,1.13-1.47,1.13h-12.66c-.69,0-1.29-.46-1.47-1.13l-2.62-9.86c-.12-.46-.02-.94.26-1.32.29-.37.73-.59,1.21-.59h16.74l.63-2.37c.11-.42.4-.78.79-.97l1.18-.58c-3.03-2.8-6.75-4.68-10.2-4.68-7.4,0-16.06,8.6-16.44,16.51-.38,7.91,4.85,10.12,9.44,9.76,2.8-.22,4.28-1.52,7-1.52s4.2,1.3,7,1.52c4.59.36,9.81-1.85,9.44-9.76Zm-11.46,1.96l.51-1.91h-11.34l.51,1.91h10.32Z"/><text class="cls-3" transform="translate(160.54 129.61)"><tspan class="cls-2" x="0" y="0">h</tspan><tspan class="cls-6" x="18.38" y="0">e</tspan><tspan class="cls-1" x="34.63" y="0">ybuddy</tspan></text><text class="cls-4" transform="translate(160.39 153.94)"><tspan class="cls-1" x="0" y="0">s</tspan><tspan class="cls-2" x="13.72" y="0">h</tspan><tspan class="cls-1" x="32.11" y="0">op</tspan></text></svg>